<svg viewBox="0 0 500 500" xmlns="http://www.w3.org/2000/svg"><path d="M 179.42 286.782 L 144.013 284.74 L 132.122 326.165 L 164.726 333.943 L 179.42 286.782 Z" fill="#f45922" transform="matrix(1, 0.000596, -0.000596, 1, 0.184356, -0.092765)"></path><g fill="none" stroke-miterlimit="10" stroke-width="1.43" transform="matrix(0.463429, 0.000277, 0, 0.463429, -2.639492, 59.878651)"><path d="m306 521.42 65.94 5.26" stroke="#fc861d"></path><path d="m325.69 571.13 19.55-84.47" stroke="#fc861d"></path><path d="m392.88 489.41-76.4-4.41-25.71 89.39 70.34 16.78z" stroke="#141414"></path></g><path d="M 172.394 261.429 L 157.202 312.616 L 207.5 323.442 L 219.331 261.429 L 172.394 261.429 Z" fill="#7b3ad6" transform="matrix(1, 0.000596, -0.000596, 1, 0.174288, -0.112131)"></path><path d="M 249.329 261.469 L 237.498 323.482 L 253.087 326.833 L 261.121 327.985 L 274.54 261.469 L 249.329 261.469 Z" fill="#5a1cba" transform="matrix(1, 0.000596, -0.000596, 1, 0.175665, -0.152503)"></path><path d="M 156.18 318.722 L 172.834 261.321" fill="none" stroke="#c630b1" stroke-miterlimit="10" stroke-width="1.43" transform="matrix(1, 0.000596, -0.000596, 1, 0.172845, -0.097974)"></path><path d="M 331.905 234.44 L 343.902 279.823 L 318.921 282.252 L 317.572 242.981 L 331.905 234.44 Z" fill="#3282d8" transform="matrix(1, 0.000596, -0.000596, 1, 0.154, -0.197031)"></path><path d="M 338.454 348.912 L 350.989 284.492 L 400.17 296.624 L 404.97 348.912 L 374.347 364.471 L 338.454 348.912 Z" fill="#49adea" transform="matrix(1, 0.000596, -0.000596, 1, 0.193416, -0.221436)"></path><path d="M 267.751 261.497 L 339.393 261.497" fill="#c630b1" stroke="#f9bb1e" stroke-miterlimit="10" stroke-width="1.43" transform="matrix(1, 0.000596, -0.000596, 1, 0.155873, -0.180844)"></path><path d="M 389.077 320.825 L 374.485 271.739 L 343.871 271.739 L 375.131 330.966 L 389.077 320.825 Z" fill="#ad2a95" transform="matrix(1, 0.000596, -0.000596, 1, 0.179633, -0.218319)"></path><path d="M 325.26 271.73 L 363.731 271.73 L 375.841 327.713 L 329.952 327.713 L 325.26 271.73 Z" fill="#c630b1" transform="matrix(1, 0.000596, -0.000596, 1, 0.178658, -0.20883)"></path><path d="M 325.833 311.717 L 351.647 311.717 L 361.943 373.597 L 327.527 376.25 L 325.833 311.717 Z" fill="#4cccd3" transform="matrix(1, 0.000596, -0.000596, 1, 0.205032, -0.204853)"></path><path d="M 114.044 383.277 L 131.747 406.569 L 173.791 367.031 L 178.896 326.823 L 142.221 319.329 L 114.044 383.277 Z" fill="#49adea" transform="matrix(1, 0.000596, -0.000596, 1, 0.216298, -0.087213)"></path><path d="M 125.562 398.427 L 153.397 321.61" fill="#49adea" stroke="#f9bb1e" stroke-miterlimit="10" stroke-width="1.43" transform="matrix(1, 0.000596, -0.000596, 1, 0.21455, -0.083048)"></path><path d="M 103.018 368.744 L 114.051 383.262 L 142.229 319.314 L 131.905 317.211 L 103.018 368.744 Z" fill="#3282d8" transform="matrix(1, 0.000596, -0.000596, 1, 0.208718, -0.073006)"></path><g stroke-miterlimit="10" stroke-width="1.43" transform="matrix(0.463429, 0.000277, 0, 0.463429, 17.360508, 59.890579)"><path d="m204.79 630.69 81.95 17.54" fill="#49adea" stroke="#f9bb1e"></path><g fill="none"><path d="m208.6 697.64 38.17 50.26 90.77-85.32 11.07-86.76-79.13-16.17z" stroke="#141414"></path><path d="m184.81 666.31 23.79 31.33 60.88-137.99-22.27-4.54z" stroke="#141414"></path><g stroke="#f9bb1e"><path d="m433.81 547.88s13.26-18.88 21.26-13.78-15.44 15.34-21.26 13.78-22.23-5.78-17.58-14.53 17.58 14.53 17.58 14.53z"></path><path d="m449.14 556.41c-8.59 2.63-15.33-8.53-15.33-8.53s-7.17 5.13-14 3.09"></path><path d="m293.57 563.44s13.25-18.86 21.26-13.79-15.44 15.35-21.26 13.79-22.23-5.78-17.58-14.53 17.58 14.53 17.58 14.53z"></path><path d="m308.89 572c-8.59 2.63-15.32-8.53-15.32-8.53s-7.17 5.12-14 3.09"></path></g></g><g stroke="#141414"><path d="m846.73 562.6h-44.66v90.1l27.9 22.39z" fill="#141414"></path><g fill="none"></g></g></g><path d="M 164.034 360.283 L 181.65 308.986 L 262.406 320.734 L 252.408 390.398 L 164.034 360.283 Z" fill="#c630b1" transform="matrix(1, 0.000596, -0.000596, 1, 0.20841, -0.12699)"></path><g fill="none" stroke-miterlimit="10" stroke-width="1.43" transform="matrix(0.463429, 0, 0, 0.463429, 17.360508, 60.008129)"><path d="m403.42 656.11 30.11-107.37" stroke="#f9bb1e"></path><path d="m336.01 591.17 166.26 35.8" stroke="#f9bb1e"></path><path d="m316.48 647.94 38.08-110.69 174.24 25.35-21.66 150.32z" stroke="#141414"></path></g><path d="M 394.862 338.212 L 363.112 338.212 L 369.557 429.439 L 391.029 446.444 L 391.081 446.431 L 403.382 363.552 L 394.862 338.212 Z" fill="#fc861d" transform="matrix(1, 0.000596, -0.000596, 1, 0.233846, -0.228297)"></path><path d="M 375.824 369.092 L 402.573 369.092" fill="none" stroke="#f9e0ac" stroke-miterlimit="10" stroke-width="1.43" transform="matrix(1, 0.000596, -0.000596, 1, 0.220001, -0.231847)"></path><path d="M 394.862 338.212 L 363.112 338.212 L 369.557 429.439 L 391.029 446.444 L 391.081 446.431 L 403.382 363.552 L 394.862 338.212 Z" fill="none" stroke="#141414" stroke-miterlimit="10" stroke-width="1.43" transform="matrix(1, 0.000596, -0.000596, 1, 0.233846, -0.228297)"></path><path d="M 389.061 320.832 L 361.92 320.832 L 363.149 338.209 L 394.899 338.209 L 389.061 320.832 Z" fill="#f45922" transform="matrix(1, 0.000596, -0.000596, 1, 0.19642, -0.225426)"></path><path d="M 374.31 320.837 L 395.645 415.762" fill="none" stroke="#f9e0ac" stroke-miterlimit="10" stroke-width="1.43" transform="matrix(1, 0.000596, -0.000596, 1, 0.219528, -0.229332)"></path><path d="M 389.061 320.832 L 361.92 320.832 L 363.149 338.209 L 394.899 338.209 L 389.061 320.832 Z" fill="none" stroke="#141414" stroke-miterlimit="10" stroke-width="1.43" transform="matrix(1, 0.000596, -0.000596, 1, 0.19642, -0.225426)"></path><path d="M 351.648 311.729 L 364.553 311.729 L 375.84 369.077 L 361.944 373.609 L 351.648 311.729 Z" fill="#21969b" transform="matrix(1, 0.000596, -0.000596, 1, 0.204252, -0.216684)"></path><path d="M 370.037 338.193 L 335.301 338.193" fill="none" stroke="#f9e0ac" stroke-miterlimit="10" stroke-width="1.43" transform="matrix(1, 0.000596, -0.000596, 1, 0.201583, -0.210086)"></path><path d="M 177.853 261.327 C 177.853 261.327 183.38 252.189 187.246 254.283 C 191.112 256.378 180.596 261.865 177.853 261.327 C 175.108 260.79 167.391 259.353 169.265 255.164 C 171.14 250.974 177.853 261.327 177.853 261.327 Z" stroke="#c630b1" transform="matrix(1, 0.000596, -0.000596, 1, 0.153569, -0.106337)"></path><path d="M 185.205 264.785 C 181.318 266.277 177.849 261.327 177.849 261.327 C 177.849 261.327 174.699 263.923 171.473 263.181" stroke="#c630b1" transform="matrix(1, 0.000596, -0.000596, 1, 0.156863, -0.106221)"></path><g transform="matrix(1.110822, 0.000662, 0, 1.110822, -357.183624, -8.570925)"><title>Tree</title><path d="M 519.072 200.909 L 522.382 199.902 L 520.616 188.976 L 486.263 189.242" fill="none" stroke="#141414" stroke-miterlimit="10" stroke-width="1.46" transform="matrix(0.353104, 0.935584, -0.935584, 0.353104, 508.629323, -345.728588)"></path><path d="M 700.092 152.087 L 607.976 361.311 L 315.891 143.75 L 700.092 152.087 Z" fill="#3da591" transform="matrix(0.353104, 0.935584, -0.935584, 0.353104, 564.88119, -311.907772)"></path><g><g fill="none" stroke-miterlimit="10" stroke-width="1.46" transform="matrix(0.22352, 0.592238, -0.592238, 0.22352, 707.276123, -133.397644)"><path d="m443.1 539.31-27.95-71.66 73.82-10.73-26.44-69.22 53.66-26.33-32.12-16.28" stroke="#fff"></path><path d="m309.26 452.31-24.43-45.23 76.9-20.84" stroke="#fff"></path><path d="m762.7 351.14-145.52 330.52-461.42-343.69" stroke="#141414"></path><path d="m539.85 622.43-23.66-86.65 71.01-12.15-35.5-86.21 91.08-10.22-38.03-79.49" stroke="#fff"></path></g><circle class="animate-bulb delay-[2000ms]" cx="561.68" cy="578.76" fill="#f75e5e" r="11.483" transform="matrix(0.353104, 0.935584, -0.935584, 0.353104, 833.206222, -401.246152)"><title>red-circle</title></circle><circle cx="566.01" cy="580.1" fill="none" r="11.483" stroke="#141414" stroke-miterlimit="10" stroke-width="1.46" transform="matrix(0.353104, 0.935584, -0.935584, 0.353104, 833.105209, -402.906491)"></circle><circle cx="638.58" cy="453" fill="#76d6f4" r="7.742" transform="matrix(0.353104, 0.935584, -0.935584, 0.353104, 780.062003, -411.352962)"></circle><circle cx="642.22" cy="456.8" fill="none" r="7.742" stroke="#141414" stroke-miterlimit="10" stroke-width="1.46" transform="matrix(0.353104, 0.935584, -0.935584, 0.353104, 780.89501, -413.095149)"></circle><circle cx="642.78" cy="549.74" fill="#ed72bc" r="7.742" transform="matrix(0.353104, 0.935584, -0.935584, 0.353104, 812.73308, -425.330988)"></circle><circle cx="645.5" cy="552.29" fill="none" r="7.742" stroke="#141414" stroke-miterlimit="10" stroke-width="1.46" transform="matrix(0.353104, 0.935584, -0.935584, 0.353104, 813.256151, -426.595331)"></circle><circle class="animate-bulb" cx="495.43" cy="511.44" fill="#ffc533" r="11.109" transform="matrix(0.353104, 0.935584, -0.935584, 0.353104, 818.67711, -369.77588)"><title>yellow-circle</title></circle><circle cx="501.47" cy="513.99" fill="none" r="11.109" stroke="#141414" stroke-miterlimit="10" stroke-width="1.46" transform="matrix(0.353104, 0.935584, -0.935584, 0.353104, 818.770006, -372.180146)"></circle><circle class="animate-bulb" cx="692.5" cy="385.15" fill="#ffc533" r="10.293" transform="matrix(0.353104, 0.935584, -0.935584, 0.353104, 749.778803, -421.073908)"></circle><circle cx="697.66" cy="387.45" fill="none" r="10.293" stroke="#141414" stroke-miterlimit="10" stroke-width="1.46" transform="matrix(0.353104, 0.935584, -0.935584, 0.353104, 749.899897, -423.14361)"></circle><circle cx="584.47" cy="390.62" fill="#ed72bc" r="6.837" transform="matrix(0.353104, 0.935584, -0.935584, 0.353104, 765.655876, -384.691039)"></circle><circle cx="588.79" cy="392.91" fill="none" r="6.837" stroke="#141414" stroke-miterlimit="10" stroke-width="1.46" transform="matrix(0.353104, 0.935584, -0.935584, 0.353104, 765.882317, -386.471068)"></circle><circle class="animate-bulb delay-[3000ms]" cx="521.22" cy="442.2" fill="#f75e5e" r="6.837" transform="matrix(0.353104, 0.935584, -0.935584, 0.353104, 791.561879, -369.658357)"><title>red-circle</title></circle><circle cx="525.21" cy="444.58" fill="none" r="6.837" stroke="#141414" stroke-miterlimit="10" stroke-width="1.46" transform="matrix(0.353104, 0.935584, -0.935584, 0.353104, 791.861989, -371.336732)"></circle><circle class="animate-bulb delay-[4000ms]" cx="206.39" cy="356.62" fill="#f75e5e" r="6.02" transform="matrix(0.353104, 0.935584, -0.935584, 0.353104, 802.975269, -250.473054)"><title>red-circle</title></circle><circle cx="209.31" cy="360.37" fill="none" r="6.02" stroke="#141414" stroke-miterlimit="10" stroke-width="1.46" transform="matrix(0.353104, 0.935584, -0.935584, 0.353104, 803.884448, -251.961594)"></circle><circle class="animate-bulb delay-[5000ms]" cx="455.73" cy="442.2" fill="#76d6f4" r="6.837" transform="matrix(0.353104, 0.935584, -0.935584, 0.353104, 800.048328, -347.172642)"><title>blue-circle</title></circle><circle cx="459.23" cy="444.58" fill="none" r="6.837" stroke="#141414" stroke-miterlimit="10" stroke-width="1.46" transform="matrix(0.353104, 0.935584, -0.935584, 0.353104, 800.411915, -348.682773)"></circle><circle class="delay-1000 animate-bulb" cx="326.09" cy="438" fill="#ffc533" r="6.837" transform="matrix(0.353104, 0.935584, -0.935584, 0.353104, 815.405565, -302.117075)"><title>yellow-circle</title></circle><circle cx="329.41" cy="442.2" fill="none" r="6.837" stroke="#141414" stroke-miterlimit="10" stroke-width="1.46" transform="matrix(0.353104, 0.935584, -0.935584, 0.353104, 816.417406, -303.801248)"></circle><circle class="animate-bulb delay-[6000ms]" cx="259.55" cy="384.61" fill="#76d6f4" r="6.837" transform="matrix(0.353104, 0.935584, -0.935584, 0.353104, 805.696826, -272.352339)"><title>blue-circle</title></circle><circle cx="262.78" cy="388" fill="none" r="6.837" stroke="#141414" stroke-miterlimit="10" stroke-width="1.46" transform="matrix(0.353104, 0.935584, -0.935584, 0.353104, 806.442248, -273.900648)"><title>Border</title></circle><g class="animate-bulb" fill="none" stroke="#141414" stroke-miterlimit="10" stroke-width="1.46" transform="matrix(0.22352, 0.592238, -0.592238, 0.22352, 704.014099, -127.347794)"><title>Star</title><path class="text-yellow-400" d="M 121.017 362.453 L 155.748 292.983 L 174.038 370.132 L 116.627 308.342 L 202.918 318.954 L 121.017 362.453 Z" fill="currentColor" transform="matrix(1, 0, 0, 1, -0.000065, 0.000031)"></path><path d="m164.91 331.58 9.14 38.57"></path><path d="m155.76 293 6.16 25.97"></path><path d="m155.76 344.02-34.73 18.45"></path><path d="m202.93 318.97-35.78 19"></path><path d="m116.64 308.36 29.63 3.64"></path></g></g></g><path d="M 173.263 461.318 L 210.028 475.542 L 220.706 368.988 L 155.087 349.311 L 130.679 405.243 L 173.263 461.318 Z" fill="#4cccd3"></path><g stroke-miterlimit="10" stroke-width="1.43" transform="matrix(0.463429, 0, 0, 0.463429, 17.360508, 60.008129)"><path d="m341.99 740.21-85.9-21.77" fill="none" stroke="#f9e0ac"></path><path d="m297.91 816.47 55.55-175.33" fill="none" stroke="#f9e0ac"></path><g stroke="#141414"><path d="m336.41 865.95 79.33 30.69 23.04-229.92-141.59-42.46-52.67 120.69z" fill="none"></path><path d="m500 685.07-61.22-18.35-23.04 229.92h73.07z" fill="#141414"></path><path d="m721.37 542.97h27.85l24.28 123.75" fill="none"></path></g></g><path d="M 201.118 497.954 L 254.522 483.435 L 249.047 396.355 L 246.363 395.698 L 237.04 416.965 L 175.824 403.043 L 163.352 448.255 L 201.118 497.954 Z" fill="#fc861d" transform="matrix(1, 0.000596, -0.000596, 1, 0.266289, -0.124421)"></path><g fill="none" stroke-miterlimit="10" stroke-width="1.43" transform="matrix(0.463429, 0.000277, 0, 0.463429, 17.360508, 59.890579)"><path d="m453.19 843.3-128.39-40.92" stroke="#f9e0ac"></path><g stroke="#141414"><path d="m396.45 945.01 115.25-31.33-11.7-187.9-5.79-1.42-20.14 45.89-132.08-30.04-26.97 97.56z"></path><path d="m665.67 542.97h55.7l22.14 133.53-74.27 5.72z"></path></g></g><path d="M 246.392 395.699 L 182.216 379.975 L 175.853 403.044 L 237.07 416.966 L 246.392 395.699 Z" fill="#f45922" transform="matrix(1, 0.000596, -0.000596, 1, 0.237475, -0.125732)"></path><path d="M 391.515 443.385 L 379.552 386.847 L 336.314 386.847 L 335.279 385.474 L 323.883 445.425 L 341.35 459.925 L 391.064 446.416 L 391.515 443.385 Z" fill="#c630b1" transform="matrix(1, 0.000596, -0.000596, 1, 0.251939, -0.213068)"></path><path d="M 379.58 386.848 L 375.818 369.074 L 338.424 369.074 L 335.306 385.475 L 336.342 386.848 L 379.58 386.848 Z" fill="#ad2a95" transform="matrix(1, 0.000596, -0.000596, 1, 0.22528, -0.212924)"></path><g stroke-miterlimit="10" stroke-width="1.43" transform="matrix(0.463429, 0.000277, 0, 0.463429, 17.360508, 59.890579)"><path d="m741.89 666.72 24.51 177.74" fill="#c630b1" stroke="#f9bb1e"></path><path d="m707.8 755.8 84.45-.21" fill="#c630b1" stroke="#f9bb1e"></path><g fill="none"><path d="m745.14 690.28s11.94-19.72 20.27-15.2-14.36 16.36-20.27 15.2-22.58-4.28-18.53-13.28 18.53 13.28 18.53 13.28z" stroke="#f9bb1e"></path><path d="m761 697.75c-8.39 3.21-15.87-7.47-15.87-7.47s-6.81 5.6-13.77 4" stroke="#f9bb1e"></path><path d="m567.92 508.54s11.94-19.72 20.27-15.2-14.36 16.36-20.27 15.2-22.58-4.26-18.53-13.31 18.53 13.31 18.53 13.31z" stroke="#f9e0ac"></path><path d="m583.79 516c-8.4 3.22-15.87-7.46-15.87-7.46s-6.81 5.6-13.77 4" stroke="#f9e0ac"></path><g stroke="#f9e0ac"><path d="m354.66 641.49s19.87-17.83 27.57-10-21.41 13.29-27.57 10-23.58-12.32-16.05-21 16.05 21 16.05 21z"></path><path d="m369.72 655.1c-10.37.74-15.06-13.61-15.06-13.61s-9.43 3.91-16.61-.17"></path><path d="m693.84 543.65s11.94-19.72 20.27-15.19-14.36 16.36-20.27 15.19-22.57-4.25-18.53-13.3 18.53 13.3 18.53 13.3z"></path><path d="m709.71 551.12c-8.39 3.21-15.87-7.47-15.87-7.47s-6.8 5.61-13.77 4"></path></g><path d="m708.24 458s11.94-19.72 20.27-15.2-14.36 16.36-20.27 15.2-22.57-4.26-18.53-13.3 18.53 13.3 18.53 13.3z" stroke="#f9bb1e"></path><path d="m724.11 465.48c-8.39 3.21-15.87-7.47-15.87-7.47s-6.8 5.6-13.77 4" stroke="#f9bb1e"></path><path d="m774.38 578.84s8.34-13.77 14.16-10.61-10 11.42-14.16 10.61-15.76-3-12.94-9.29 12.94 9.29 12.94 9.29z" stroke="#f9e0ac"></path><path d="m785.46 584.05c-5.86 2.25-11.08-5.21-11.08-5.21s-4.75 3.91-9.61 2.82" stroke="#f9e0ac"></path><g stroke="#141414"><path d="m807.33 827.07-25.74-122h-93.3l-2.23-2.96-24.67 129.36 37.67 31.29 107.29-29.15z"></path><path d="m781.59 705.07-8.09-38.35h-80.69"></path></g></g></g><path d="M 315.25 296.146 L 327.493 296.146 L 333.146 341.488 L 315.279 345.456 L 315.25 296.146 Z" fill="#f45922" transform="matrix(1, 0.000596, -0.000596, 1, 0.191214, -0.193124)"></path><path d="M 188.762 482.062 L 210.55 387.281" fill="none" stroke="#f9e0ac" stroke-miterlimit="10" stroke-width="1.43" transform="matrix(1, 0.000596, -0.000596, 1, 0.259045, -0.118892)"></path><path d="M 252.396 339.15 L 260.977 296.124 L 315.25 296.124 L 318.918 341.134 L 255.045 345.434 L 252.396 339.15 Z" fill="#fc861d" transform="matrix(1, 0.000596, -0.000596, 1, 0.191194, -0.170158)"></path><g fill="none" stroke-miterlimit="10" stroke-width="1.43" transform="matrix(0.463429, 0.000277, 0, 0.463429, 17.360508, 59.890579)"><path d="m567.84 509.4-15 95.32" stroke="#f9e0ac"></path><path d="m515.46 560.66h160.14" stroke="#f9e0ac"></path><g stroke="#141414"><path d="m494.21 724.36-138.46-33.93-13.76 49.78 132.08 30.04z"></path><path d="m642.82 509.4 7.86 97.12-137.83 9.28-5.71-13.56"></path></g></g><path d="M 252.378 339.155 L 247.14 365.858 L 345.38 355.278 L 345.368 332.866 L 252.378 339.155 Z" fill="#5a1cba" transform="matrix(1, 0.000596, -0.000596, 1, 0.208228, -0.176471)"></path><path d="M 235.849 423.209 L 338.402 460.691 L 345.408 458.787 L 345.346 355.275 L 247.105 365.855 L 235.849 423.209 Z" fill="#7b3ad6" transform="matrix(1, 0.000596, -0.000596, 1, 0.243158, -0.173105)"></path><g stroke-miterlimit="10" stroke-width="1.43" transform="matrix(0.463429, 0.000277, 0, 0.463429, 17.360508, 59.890579)"><g fill="none"><path d="m707.8 700.8-222.45 10.82" stroke="#c630b1"></path><path d="m611.68 595.17-14.2 135.17" stroke="#c630b1"></path><g stroke="#141414"><path d="m471.44 783.62 221.24 80.88 15.12-4.11v-223.36l-212 22.83z"></path><path d="m507.14 602.24-11.34 57.62 212-22.83v-48.36z"></path></g></g><path d="m491.25 919.24-73.15 19.89-22.61-139.8 62.38 3.81z" fill="#141414" stroke="#141414"></path></g><path d="M 322.05 405.225 L 225.783 440.473 L 235.865 488.554 L 343.771 459.224 L 322.05 405.225 Z" fill="#49adea" transform="matrix(1, 0.000596, -0.000596, 1, 0.26634, -0.169612)"></path><path d="M 295.557 387.318 L 200.652 430.473 L 225.803 440.459 L 322.07 405.211 L 295.557 387.318 Z" fill="#3282d8" transform="matrix(1, 0.000596, -0.000596, 1, 0.246671, -0.155665)"></path><g stroke-miterlimit="10" stroke-width="1.43" transform="matrix(0.463429, 0, 0, 0.463429, 17.360508, 60.008129)"><path d="m589.62 892.51-34.85-110.07-63.52-26.64" fill="none" stroke="#f9bb1e"></path><path d="m600.33 706.21-204.84 93.12 54.26 21.55" fill="none" stroke="#141414"></path><g fill="none"><g stroke="#c630b1"><path d="m607.83 631.14s32.93-35.86 46.32-20.62-46.32 20.62-46.32 20.62z"></path><path d="m607.42 630.7s-31.42-37.22-45.42-22.56 45.42 22.56 45.42 22.56z"></path><path d="m607.42 630.7s18.27 3.16 17.33 8.73-17.33-8.73-17.33-8.73-4.26 13.12-7.72 8.3 7.72-8.3 7.72-8.3z"></path></g><g stroke="#f9e0ac"><path d="m410.92 731.23s29.74-22.83 37.87-9.49-37.87 9.49-37.87 9.49z"></path><path d="m410.67 730.84s-18.86-32.4-31.44-23.14 31.44 23.14 31.44 23.14z"></path><path d="m410.67 730.84s13.44 4.83 12 8.93-12-8.93-12-8.93-5 9.38-7 5.27 7-5.27 7-5.27z"></path></g><g stroke="#f9bb1e"><path d="m524.76 770.23s-.38-59.73 24.38-57.23-24.38 57.23-24.38 57.23z"></path><path d="m524 770.18s-59.29-7.21-59.64 17.68 59.64-17.68 59.64-17.68z"></path><path d="m524 770.18s19.05-12.43 22.86-6.64-22.86 6.64-22.86 6.64 7.13 15.34 0 13.92 0-13.92 0-13.92z"></path><path d="m464.38 882.17 217.09-77.73"></path></g><path d="m657.52 744.82-207.77 76.06 21.69 103.75 232.88-63.29" stroke="#141414"></path></g></g><g fill="#fff" transform="matrix(0.463429, 0.000277, 0, 0.463429, 17.360508, 59.890579)"><path d="m287.91 200.19c4.6 0 4.6-7.14 0-7.14s-4.6 7.14 0 7.14z"></path><path d="m320.76 337.3c4.59 0 4.6-7.14 0-7.14s-4.6 7.14 0 7.14z"></path><path d="m440.73 125.93c4.59 0 4.6-7.14 0-7.14s-4.6 7.14 0 7.14z"></path><path d="m626.4 105.93c4.59 0 4.6-7.14 0-7.14s-4.61 7.14 0 7.14z"></path><path d="m793.5 297.31c4.59 0 4.6-7.14 0-7.14s-4.6 7.14 0 7.14z"></path><path d="m742.08 387.29c4.6 0 4.6-7.14 0-7.14s-4.6 7.14 0 7.14z"></path><path d="m843.49 437.28c4.59 0 4.6-7.14 0-7.14s-4.61 7.14 0 7.14z"></path><path d="m230.78 505.83c4.6 0 4.6-7.14 0-7.14s-4.6 7.14 0 7.14z"></path><path d="m189.36 395.86c4.6 0 4.61-7.14 0-7.14s-4.6 7.14 0 7.14z"></path><path d="m357.89 220.19c4.6 0 4.61-7.14 0-7.14s-4.6 7.14 0 7.14z"></path><path d="m626.4 477.27c4.59 0 4.6-7.14 0-7.14s-4.61 7.14 0 7.14z"></path><path d="m486.43 425.85c4.6 0 4.6-7.14 0-7.14s-4.6 7.14 0 7.14z"></path><path d="m389.31 573c4.6 0 4.61-7.14 0-7.14s-4.6 7.14 0 7.14z"></path><path d="m373.6 782.91c4.6 0 4.61-7.15 0-7.15s-4.6 7.15 0 7.15z"></path><path d="m635 798.62c4.59 0 4.6-7.15 0-7.15s-4.61 7.15 0 7.15z"></path><path d="m823.49 540.11c4.6 0 4.6-7.14 0-7.14s-4.6 7.14 0 7.14z"></path><path d="m369.32 143.6c3.44 0 3.45-5.35 0-5.35s-3.45 5.35 0 5.35z"></path><path d="m287.91 273.57c3.45 0 3.45-5.36 0-5.36s-3.45 5.36 0 5.36z"></path><path d="m793.5 372.12c3.44 0 3.45-5.36 0-5.36s-3.45 5.36 0 5.36z"></path><path d="m663.53 674.9c3.45 0 3.45-5.36 0-5.36s-3.45 5.36 0 5.36z"></path><path d="m239.35 291.24a1.79 1.79 0 0 0 0-3.57 1.79 1.79 0 0 0 0 3.57z"></path><path d="m342.18 287a1.79 1.79 0 0 0 0-3.57 1.79 1.79 0 0 0 0 3.57z"></path><path d="m437.87 181.27a1.79 1.79 0 0 0 0-3.57 1.79 1.79 0 0 0 0 3.57z"></path><path d="m836.34 344.09a1.79 1.79 0 0 0 0-3.57 1.79 1.79 0 0 0 0 3.57z"></path><path d="m794.93 441.21a1.79 1.79 0 0 0 0-3.57 1.79 1.79 0 0 0 0 3.57z"></path><path d="m266.49 411.21a1.79 1.79 0 0 0 0-3.57 1.79 1.79 0 0 0 0 3.57z"></path><path d="m280.77 525.47a1.79 1.79 0 0 0 0-3.57 1.79 1.79 0 0 0 0 3.57z"></path><path d="m172.23 524a1.79 1.79 0 0 0 0-3.57 1.79 1.79 0 0 0 0 3.57z"></path><path d="m466.44 222.69a1.79 1.79 0 0 0 0-3.57 1.79 1.79 0 0 0 0 3.57z"></path><path d="m619.26 149.85a1.79 1.79 0 0 0 0-3.57 1.79 1.79 0 0 0 0 3.57z"></path><path d="m496.43 104.15a1.79 1.79 0 0 0 0-3.57 1.79 1.79 0 0 0 0 3.57z"></path><path d="m277.91 151.28a1.79 1.79 0 0 0 0-3.57 1.79 1.79 0 0 0 0 3.57z"></path><path d="m315.05 391.22a1.79 1.79 0 0 0 0-3.57 1.79 1.79 0 0 0 0 3.57z"></path><path d="m515 468.34a1.79 1.79 0 0 0 0-3.57 1.79 1.79 0 0 0 0 3.57z"></path><path d="m757.79 429.78a1.79 1.79 0 0 0 0-3.57 1.79 1.79 0 0 0 0 3.57z"></path><path d="m846.34 488.34a1.79 1.79 0 0 0 0-3.57 1.79 1.79 0 0 0 0 3.57z"></path></g></svg>